<?xml version="1.0" standalone="no"?>
<!DOCTYPE svg PUBLIC "-//W3C//DTD SVG 20010904//EN"
 "http://www.w3.org/TR/2001/REC-SVG-20010904/DTD/svg10.dtd">
<svg version="1.0" xmlns="http://www.w3.org/2000/svg"
 width="83.000000pt" height="85.000000pt" viewBox="0 0 83.000000 85.000000"
 preserveAspectRatio="xMidYMid meet">

<g transform="translate(0.000000,85.000000) scale(0.100000,-0.100000)"
fill="#000000" stroke="none">
<path d="M424 816 c-33 -33 -34 -36 -34 -120 0 -85 0 -86 25 -86 25 0 25 1 25
78 0 64 4 82 18 95 35 32 84 12 94 -38 5 -32 42 -26 46 8 3 21 -5 36 -31 62
-48 48 -95 49 -143 1z"/>
<path d="M180 635 c0 -24 2 -25 75 -25 73 0 75 1 75 25 0 24 -2 25 -75 25 -73
0 -75 -1 -75 -25z"/>
<path d="M500 635 c0 -24 2 -25 75 -25 73 0 75 1 75 25 0 24 -2 25 -75 25 -73
0 -75 -1 -75 -25z"/>
<path d="M7 553 c-4 -3 -7 -33 -7 -65 0 -93 50 -168 137 -205 46 -19 510 -19
556 0 90 38 140 115 135 210 l-3 62 -406 3 c-223 1 -408 -1 -412 -5z m221 -65
c16 -16 15 -28 -3 -28 -8 0 -15 5 -15 10 0 6 -11 10 -25 10 -36 0 -31 -25 6
-36 69 -20 64 -79 -6 -79 -25 0 -42 6 -49 17 -15 25 1 34 23 14 22 -20 56 -18
56 4 0 7 -14 17 -31 22 -43 11 -58 31 -44 57 12 24 68 29 88 9z m162 -58 c0
-40 -4 -70 -10 -70 -6 0 -10 30 -10 70 0 40 4 70 10 70 6 0 10 -30 10 -70z
m-52 18 c7 -7 12 -29 12 -50 l0 -38 -44 0 c-31 0 -46 5 -50 16 -9 22 0 31 34
39 40 9 40 29 0 22 -28 -6 -38 1 -23 16 11 11 58 8 71 -5z m150 0 c18 -18 16
-88 -3 -88 -11 0 -15 11 -15 41 0 33 -3 40 -17 37 -13 -2 -19 -14 -21 -41 -5
-55 -22 -45 -22 13 0 50 0 50 33 50 18 0 38 -5 45 -12z m54 -19 l11 -31 13 31
c15 36 39 43 29 9 -21 -69 -49 -118 -66 -118 -11 0 -19 5 -19 10 0 6 7 10 15
10 8 0 15 6 15 14 0 7 -7 30 -15 49 -18 43 -19 57 -4 57 5 0 15 -14 21 -31z
m156 -22 l3 -48 -43 3 c-55 4 -66 33 -19 51 40 15 40 31 1 22 -18 -4 -30 -2
-30 3 0 14 20 21 55 19 28 -2 30 -5 33 -50z"/>
<path d="M285 390 c-3 -5 3 -10 14 -10 12 0 21 5 21 10 0 6 -6 10 -14 10 -8 0
-18 -4 -21 -10z"/>
<path d="M635 390 c-3 -5 3 -10 14 -10 12 0 21 5 21 10 0 6 -6 10 -14 10 -8 0
-18 -4 -21 -10z"/>
<path d="M340 186 c0 -13 -7 -26 -15 -30 -10 -3 -15 -19 -15 -47 0 -57 50
-109 105 -109 55 0 105 52 105 109 0 28 -5 44 -15 47 -8 4 -15 17 -15 30 0 23
-3 24 -75 24 -72 0 -75 -1 -75 -24z"/>
</g>
</svg>
