<?xml version="1.0" standalone="no"?>
<!DOCTYPE svg PUBLIC "-//W3C//DTD SVG 20010904//EN"
 "http://www.w3.org/TR/2001/REC-SVG-20010904/DTD/svg10.dtd">
<svg version="1.0" xmlns="http://www.w3.org/2000/svg"
 width="544.000000pt" height="638.000000pt" viewBox="0 0 544.000000 638.000000"
 preserveAspectRatio="xMidYMid meet">

<g transform="translate(0.000000,638.000000) scale(0.100000,-0.100000)"
fill="#000000" stroke="none">
<path d="M2578 5343 c7 -3 16 -2 19 1 4 3 -2 6 -13 5 -11 0 -14 -3 -6 -6z"/>
<path d="M2503 5333 c-26 -10 -11 -25 52 -54 59 -27 67 -28 81 -14 19 19 36
19 98 0 27 -8 51 -13 54 -11 2 3 -42 19 -97 37 -85 27 -106 30 -127 20 -29
-13 -46 -7 -37 14 5 15 -2 18 -24 8z"/>
<path d="M2800 5315 c0 -5 56 -35 65 -35 3 0 4 4 1 9 -6 10 -66 33 -66 26z"/>
<path d="M918 5289 c-21 -10 -41 -27 -46 -37 -14 -26 -24 -200 -12 -207 15 -9
12 -31 -5 -49 -14 -14 -12 -21 19 -68 39 -61 71 -98 84 -98 16 0 41 25 44 45
2 11 12 28 23 37 19 17 19 18 -22 12 -43 -7 -73 6 -73 29 0 7 4 7 12 -1 17
-17 36 -15 65 8 19 15 21 20 9 20 -9 0 -16 6 -16 14 0 8 -7 17 -16 20 -28 11
-35 7 -24 -14 10 -19 9 -20 -16 -14 -21 5 -25 4 -19 -6 5 -9 4 -11 -3 -6 -11
7 -32 68 -32 95 0 9 11 12 40 9 36 -3 40 -1 38 16 -2 12 -16 24 -38 31 -31 10
-35 16 -35 46 l0 34 87 -1 c55 0 93 -6 103 -14 12 -10 15 -10 15 5 0 31 -33
73 -69 89 -60 25 -74 26 -113 5z m75 -326 c-7 -2 -19 -2 -25 0 -7 3 -2 5 12 5
14 0 19 -2 13 -5z"/>
<path d="M2375 5211 c-3 -7 2 -11 14 -11 19 0 41 -26 41 -49 0 -5 -10 -13 -22
-17 l-21 -6 23 -18 c14 -11 20 -22 15 -30 -5 -9 -1 -10 16 -5 19 5 21 4 9 -4
-8 -6 -33 -8 -56 -5 -40 6 -74 -11 -74 -36 0 -5 39 -28 88 -51 68 -33 104 -44
167 -50 50 -5 81 -5 83 1 2 6 10 10 18 10 8 0 23 5 33 12 15 9 28 9 55 1 34
-11 36 -10 36 13 0 33 -26 54 -151 119 -100 51 -111 55 -115 38 -3 -10 -14
-24 -25 -31 -17 -11 -19 -9 -19 12 0 14 5 28 12 32 8 5 7 10 -4 18 -8 6 -20
20 -26 31 -11 18 -11 18 -13 -10 l-1 -30 -9 33 c-5 17 -16 32 -23 32 -8 0 -21
3 -29 6 -8 3 -18 1 -22 -5z m105 -105 c0 -11 -19 -15 -25 -6 -3 5 1 10 9 10 9
0 16 -2 16 -4z m79 -42 c1 -10 10 -27 19 -36 14 -17 13 -18 -8 -18 -12 0 -33
10 -45 22 -22 21 -23 24 -7 40 21 21 36 18 41 -8z m-69 -28 c0 -10 -7 -12 -22
-8 -21 5 -21 6 -2 13 10 4 20 8 22 8 1 1 2 -5 2 -13z m237 -42 c-3 -3 -12 -4
-19 -1 -8 3 -5 6 6 6 11 1 17 -2 13 -5z m-44 -31 c-7 -2 -21 -2 -30 0 -10 3
-4 5 12 5 17 0 24 -2 18 -5z"/>
<path d="M2960 5175 c10 -12 8 -16 -11 -24 -23 -9 -23 -10 6 -10 39 0 69 21
53 37 -7 7 -23 12 -36 12 -21 0 -22 -2 -12 -15z"/>
<path d="M1007 5103 c-21 -20 16 -38 57 -27 21 5 24 9 15 20 -12 14 -60 19
-72 7z"/>
<path d="M2438 4883 c7 -3 16 -2 19 1 4 3 -2 6 -13 5 -11 0 -14 -3 -6 -6z"/>
<path d="M594 4665 c-12 -17 -31 -63 -43 -103 -19 -63 -21 -90 -18 -200 7
-179 27 -307 62 -387 13 -30 16 -55 11 -96 -4 -48 -2 -59 15 -78 29 -30 61
-41 125 -41 55 0 114 28 114 55 0 6 14 27 31 48 l31 37 -19 40 c-21 46 -34 49
-60 14 -18 -24 -22 -25 -42 -13 -20 12 -22 20 -17 61 3 32 1 50 -8 57 -7 6
-16 31 -19 56 -4 25 -14 60 -23 77 -9 17 -20 63 -25 102 -5 39 -14 84 -21 100
-10 25 -9 31 3 39 14 8 14 15 3 46 -7 20 -13 44 -14 54 0 10 -8 17 -19 17 -21
0 -46 25 -37 38 2 4 2 30 -2 58 l-7 49 -21 -30z m125 -614 c24 -39 27 -50 15
-55 -8 -3 -14 -12 -14 -21 0 -9 -9 -15 -22 -14 -13 0 -17 3 -10 6 10 4 9 10
-3 30 -10 14 -15 36 -12 48 2 13 0 29 -4 36 -9 15 -1 32 11 24 5 -3 22 -27 39
-54z m-65 -67 c3 -8 2 -12 -4 -9 -6 3 -10 10 -10 16 0 14 7 11 14 -7z"/>
<path d="M1070 4671 c0 -5 -3 -18 -7 -28 -6 -16 -5 -16 10 -4 19 15 23 41 7
41 -5 0 -10 -4 -10 -9z"/>
<path d="M1065 4604 c-18 -44 -18 -44 -2 -44 8 0 24 11 37 24 20 23 21 26 7
40 -22 22 -25 21 -42 -20z"/>
<path d="M800 4580 c0 -5 7 -7 15 -4 8 4 15 8 15 10 0 2 -7 4 -15 4 -8 0 -15
-4 -15 -10z"/>
<path d="M2575 4516 c-28 -28 -32 -58 -10 -76 35 -29 103 39 78 78 -16 26 -40
26 -68 -2z"/>
<path d="M1090 4470 c-8 -5 -25 -10 -38 -10 -13 0 -25 -8 -28 -17 -19 -61 -84
-158 -104 -158 -8 0 -21 4 -29 9 -8 5 -16 4 -21 -4 -5 -9 -9 -9 -14 -1 -14 23
-36 11 -36 -19 0 -16 5 -30 10 -30 18 0 11 -28 -11 -44 -21 -14 -21 -15 -4
-66 11 -32 22 -50 29 -47 7 3 21 -5 30 -18 10 -13 24 -21 32 -18 8 3 14 0 14
-6 0 -19 16 -12 56 24 21 19 47 35 57 35 21 0 46 -26 47 -49 0 -8 7 -22 16
-32 9 -10 17 -31 18 -46 1 -15 12 -45 25 -66 26 -42 88 -94 99 -82 4 4 1 10
-5 12 -7 3 -13 16 -13 30 0 19 4 23 18 19 9 -3 28 3 41 13 19 14 22 24 17 45
-5 20 -12 26 -35 26 -16 0 -34 7 -41 15 -7 8 -21 15 -31 15 -11 0 -19 7 -19
15 0 8 -7 15 -15 15 -19 0 -19 14 1 31 26 21 65 108 62 137 -2 18 -12 32 -31
41 -25 12 -33 12 -62 -2 l-33 -16 2 41 c1 22 9 46 17 52 8 6 20 19 28 29 14
18 13 18 -23 12 -37 -7 -37 -7 -24 14 7 11 17 21 21 21 5 0 6 7 3 16 -4 9 -2
22 4 29 10 12 4 45 -9 45 -3 0 -13 -5 -21 -10z m83 -339 c-31 -54 -42 -58 -35
-12 2 17 8 29 12 26 4 -2 15 4 25 15 28 31 27 24 -2 -29z m17 -163 c0 -12 -24
-10 -38 4 -20 20 -13 28 13 16 14 -6 25 -15 25 -20z m-20 -48 c0 -5 -2 -10 -4
-10 -3 0 -8 5 -11 10 -3 6 -1 10 4 10 6 0 11 -4 11 -10z"/>
<path d="M2842 3923 c1 -10 -1 -24 -5 -30 -11 -17 1 -16 19 1 8 8 11 22 8 30
-8 22 -26 20 -22 -1z"/>
<path d="M2760 3910 c0 -5 5 -10 11 -10 5 0 7 5 4 10 -3 6 -8 10 -11 10 -2 0
-4 -4 -4 -10z"/>
<path d="M2800 3910 c0 -5 4 -10 9 -10 6 0 13 5 16 10 3 6 -1 10 -9 10 -9 0
-16 -4 -16 -10z"/>
<path d="M2740 3880 c0 -5 5 -10 10 -10 6 0 10 5 10 10 0 6 -4 10 -10 10 -5 0
-10 -4 -10 -10z"/>
<path d="M2810 3860 c0 -5 5 -10 11 -10 5 0 7 5 4 10 -3 6 -8 10 -11 10 -2 0
-4 -4 -4 -10z"/>
</g>
</svg>
